<svg width="26" height="26" viewBox="0 0 26 26" fill="none" xmlns="http://www.w3.org/2000/svg">
<path d="M16.0787 6.26109C16.0542 6.01925 16.0934 5.7675 16.2054 5.53385C16.5176 4.88237 17.2768 4.61831 17.9011 4.94405L19.4309 5.74222L21.3398 2.75441C21.727 2.14837 22.5117 1.9846 23.0925 2.38863C23.6733 2.79266 23.8302 3.61149 23.443 4.21753L21.7094 6.93101L22.9566 7.58173C23.581 7.90747 23.834 8.69966 23.5219 9.35114C23.4348 9.53282 23.313 9.68437 23.169 9.8014C23.4722 11.1981 23.4006 12.8546 22.9478 14.5574C21.9014 18.4918 19.0993 21.8473 15.2078 23.2009C10.9552 24.6801 7.36747 24.0561 4.552 22.0975C3.51154 21.3737 2.80554 20.637 2.42197 20.1034C1.7617 19.1847 2.46386 17.8855 3.55884 17.9998C8.11169 18.4748 10.138 16.8682 11.9921 12.7113C12.115 12.436 12.2369 12.1531 12.3983 11.7714C12.4447 11.6618 12.4983 11.5345 12.5983 11.2974C12.6793 11.1053 12.7397 10.9628 12.7993 10.8237C13.7928 8.50257 14.7811 6.97839 16.0787 6.26109Z" fill="#FF6633"/>
</svg>
