<svg width="26" height="26" viewBox="0 0 26 26" fill="none" xmlns="http://www.w3.org/2000/svg">
<path d="M13.284 21.4106C13.2867 21.7628 13.159 22.0874 12.9468 22.3287C12.7237 22.5803 12.4158 22.7381 12.0732 22.7494C11.7303 22.7609 11.4137 22.6238 11.18 22.3914C10.9503 22.1608 10.8038 21.8454 10.7858 21.4936C10.7368 20.6578 10.7114 19.8495 10.7093 19.0689C10.69 18.7832 10.6668 18.5049 10.6399 18.2339C6.37093 17.7001 3.59563 14.6376 2.48042 9.29978L2.16602 7.79495L3.61165 7.68519C7.30058 7.40513 9.94489 8.88872 11.5264 11.982C13.0886 6.24269 16.885 3.25 22.8673 3.25H23.9514L24.1048 4.39152C24.1667 4.85249 24.2138 5.60811 24.1816 6.56592C24.1281 8.16025 23.8596 9.75945 23.3016 11.2702C21.7905 15.3615 18.5007 17.9524 13.2096 18.2824C13.2058 18.5202 13.2044 18.7616 13.2054 19.0066C13.2576 19.7714 13.2838 20.5729 13.284 21.4106Z" fill="#84C502"/>
</svg>
