<svg width="26" height="26" viewBox="0 0 26 26" fill="none" xmlns="http://www.w3.org/2000/svg">
<path d="M6.94922 14.1159V21.9363C6.94922 23.0331 7.83847 23.9224 8.93533 23.9224H16.8798C17.9766 23.9224 18.8659 23.0331 18.8659 21.9363V9.72461L8.04992 9.72461C7.33068 11.0692 6.94922 12.5767 6.94922 14.1159Z" fill="#FFF6DE"/>
<path fill-rule="evenodd" clip-rule="evenodd" d="M2.05885 5.47323C2.37377 4.96451 3.04146 4.8074 3.55018 5.12232L24.4044 18.032C24.9131 18.347 25.0702 19.0147 24.7553 19.5234C24.4403 20.0321 23.7726 20.1892 23.2639 19.8743L2.40975 6.96456C1.90103 6.64964 1.74392 5.98195 2.05885 5.47323Z" fill="#FF6633"/>
<path fill-rule="evenodd" clip-rule="evenodd" d="M7.85417 2.07357C7.85417 1.47526 8.33919 0.990234 8.9375 0.990234H17.1556C17.7539 0.990234 18.2389 1.47526 18.2389 2.07357C18.2389 2.63667 17.8093 3.09943 17.26 3.15194L17.2959 5.92172C17.2959 6.24533 17.4615 6.75583 17.8091 7.39837C18.139 8.00826 18.5603 8.6076 18.9105 9.07465C18.9435 9.11866 18.9731 9.16512 18.9991 9.21363C19.802 10.7147 20.2279 12.3975 20.2279 14.1159V21.9363C20.2279 23.6315 18.8536 25.0057 17.1584 25.0057H8.93468C7.23951 25.0057 5.86523 23.6315 5.86523 21.9363V14.1159C5.86523 12.3975 6.2911 10.7147 7.09401 9.21363C7.11996 9.16512 7.14957 9.11866 7.18257 9.07465C7.53282 8.6076 7.95407 8.00826 8.28401 7.39837C8.63161 6.75583 8.7973 6.24533 8.7973 5.92172V5.90767L8.83314 3.15194C8.28379 3.09943 7.85417 2.63667 7.85417 2.07357ZM10.9999 3.1569L10.964 5.92952C10.9617 6.81206 10.5754 7.71636 10.1897 8.4293C9.8035 9.14318 9.3353 9.81158 8.96752 10.3056C8.35589 11.476 8.0319 12.7824 8.0319 14.1159V21.9363C8.0319 22.4348 8.43612 22.8391 8.93468 22.8391H17.1584C17.657 22.8391 18.0612 22.4348 18.0612 21.9363V14.1159C18.0612 12.7824 17.7372 11.476 17.1256 10.3056C16.7578 9.81157 16.2896 9.14318 15.9034 8.4293C15.5177 7.71636 15.1314 6.81208 15.1291 5.92954L15.0932 3.1569H10.9999Z" fill="#1D1D1F"/>
</svg>
