<svg width="24" height="25" viewBox="0 0 24 25" fill="none" xmlns="http://www.w3.org/2000/svg">
<rect y="0.234375" width="24" height="24" rx="4" fill="#F5F5F7"/>
<path fill-rule="evenodd" clip-rule="evenodd" d="M15.8111 7.40039C15.677 7.40039 15.5442 7.42681 15.4202 7.47815C15.2963 7.52949 15.1837 7.60474 15.0888 7.69959L7.92039 14.868L7.37864 16.8544L9.36508 16.3127L16.5335 9.14428C16.6283 9.04942 16.7036 8.93681 16.7549 8.81287C16.8063 8.68893 16.8327 8.55609 16.8327 8.42194C16.8327 8.28778 16.8063 8.15495 16.7549 8.03101C16.7036 7.90707 16.6283 7.79445 16.5335 7.69959C16.4386 7.60474 16.326 7.52949 16.2021 7.47815C16.0781 7.42681 15.9453 7.40039 15.8111 7.40039ZM15.0375 6.55427C15.2828 6.45268 15.5457 6.40039 15.8111 6.40039C16.0766 6.40039 16.3395 6.45268 16.5848 6.55427C16.83 6.65586 17.0529 6.80477 17.2406 6.99249C17.4283 7.18021 17.5772 7.40306 17.6788 7.64833C17.7804 7.89359 17.8327 8.15647 17.8327 8.42194C17.8327 8.68741 17.7804 8.95028 17.6788 9.19555C17.5772 9.44082 17.4283 9.66367 17.2406 9.85139L9.9783 17.1137C9.91677 17.1752 9.84025 17.2196 9.7563 17.2425L6.79759 18.0494C6.62448 18.0966 6.43935 18.0475 6.31247 17.9206C6.1856 17.7937 6.13643 17.6086 6.18365 17.4355L6.99057 14.4768C7.01346 14.3928 7.05787 14.3163 7.1194 14.2548L14.3817 6.99249C14.5694 6.80477 14.7923 6.65586 15.0375 6.55427Z" fill="#686870"/>
</svg>
