<svg width="344" height="201" viewBox="0 0 344 201" fill="none" xmlns="http://www.w3.org/2000/svg">
<path d="M196.472 159.216C161.378 166.208 115.453 176.608 99.6747 160.803C83.8966 144.997 98.3428 102.851 120.557 73.6827C142.837 44.7218 172.741 28.6655 203.489 27.6601C234.094 26.5821 265.543 40.555 278.5 62.5957C291.237 84.699 285.625 114.943 270.655 131.754C255.684 148.564 231.422 152.15 196.472 159.216Z" fill="#EDEDED"/>
<path d="M105.911 143.179H122.047V130.042H129.53V115.145H122.047V94.0312H105.911V115.145H87.5532L114.096 58.7243H95.855L69.3125 115.145V130.042H105.911V143.179Z" fill="#FF6633"/>
<path d="M174.808 144.939C181.044 144.939 186.501 143.629 191.178 141.009C195.855 138.39 199.499 134.734 202.111 130.042C204.722 125.35 206.028 119.876 206.028 113.62V88.2835C206.028 82.0276 204.722 76.5537 202.111 71.8617C199.499 67.1698 195.855 63.514 191.178 60.8943C186.501 58.2747 181.044 56.9648 174.808 56.9648C168.572 56.9648 163.116 58.2747 158.438 60.8943C153.761 63.514 150.117 67.1698 147.506 71.8617C144.894 76.5537 143.589 82.0276 143.589 88.2835V113.62C143.589 119.876 144.894 125.35 147.506 130.042C150.117 134.734 153.761 138.39 158.438 141.009C163.116 143.629 168.572 144.939 174.808 144.939ZM174.808 129.807C172.002 129.807 169.469 129.143 167.208 127.813C164.947 126.484 163.155 124.685 161.829 122.417C160.504 120.15 159.842 117.608 159.842 114.793V86.9932C159.842 84.1781 160.504 81.6366 161.829 79.3688C163.155 77.1011 164.947 75.3025 167.208 73.9731C169.469 72.6437 172.002 71.979 174.808 71.979C177.615 71.979 180.148 72.6437 182.409 73.9731C184.669 75.3025 186.462 77.1011 187.787 79.3688C189.112 81.6366 189.775 84.1781 189.775 86.9932V114.793C189.775 117.608 189.112 120.15 187.787 122.417C186.462 124.685 184.669 126.484 182.409 127.813C180.148 129.143 177.615 129.807 174.808 129.807Z" fill="#FF6633"/>
<path d="M256.637 143.179H272.773V130.042H280.257V115.145H272.773V94.0312H256.637V115.145H238.28L264.822 58.7243H246.582L220.039 115.145V130.042H256.637V143.179Z" fill="#FF6633"/>
<path d="M105.911 143.179H122.047V130.042H129.53V115.145H122.047V94.0312H105.911V115.145H87.5532L114.096 58.7243H95.855L69.3125 115.145V130.042H105.911V143.179Z" fill="#FF6633"/>
<path d="M174.808 144.939C181.044 144.939 186.501 143.629 191.178 141.009C195.855 138.39 199.499 134.734 202.111 130.042C204.722 125.35 206.028 119.876 206.028 113.62V88.2835C206.028 82.0276 204.722 76.5537 202.111 71.8617C199.499 67.1698 195.855 63.514 191.178 60.8943C186.501 58.2747 181.044 56.9648 174.808 56.9648C168.572 56.9648 163.116 58.2747 158.438 60.8943C153.761 63.514 150.117 67.1698 147.506 71.8617C144.894 76.5537 143.589 82.0276 143.589 88.2835V113.62C143.589 119.876 144.894 125.35 147.506 130.042C150.117 134.734 153.761 138.39 158.438 141.009C163.116 143.629 168.572 144.939 174.808 144.939ZM174.808 129.807C172.002 129.807 169.469 129.143 167.208 127.813C164.947 126.484 163.155 124.685 161.829 122.417C160.504 120.15 159.842 117.608 159.842 114.793V86.9932C159.842 84.1781 160.504 81.6366 161.829 79.3688C163.155 77.1011 164.947 75.3025 167.208 73.9731C169.469 72.6437 172.002 71.979 174.808 71.979C177.615 71.979 180.148 72.6437 182.409 73.9731C184.669 75.3025 186.462 77.1011 187.787 79.3688C189.112 81.6366 189.775 84.1781 189.775 86.9932V114.793C189.775 117.608 189.112 120.15 187.787 122.417C186.462 124.685 184.669 126.484 182.409 127.813C180.148 129.143 177.615 129.807 174.808 129.807Z" fill="#FF6633"/>
<path d="M256.637 143.179H272.773V130.042H280.257V115.145H272.773V94.0312H256.637V115.145H238.28L264.822 58.7243H246.582L220.039 115.145V130.042H256.637V143.179Z" fill="#FF6633"/>
<path d="M99.5982 144.615V146.115H101.098H117.234H118.734V144.615V132.978H124.718H126.218V131.478V116.581V115.081H124.718H118.734V95.4674V93.9674H117.234H101.098H99.5982V95.4674V115.081H85.104L110.64 60.799L111.646 58.6605H109.283H91.0425H90.0905L89.6852 59.522L63.1427 115.943L63 116.246V116.581V131.478V132.978H64.5H99.5982V144.615ZM251.192 144.236V145.736H252.692H268.828H270.328V144.236V132.599H276.311H277.811V131.099V116.202V114.702H276.311H270.328V95.0879V93.5879H268.828H252.692H251.192V95.0879V114.702H236.698L262.234 60.4196L263.24 58.2811H260.877H242.636H241.684L241.279 59.1425L214.736 115.563L214.594 115.866V116.202V131.099V132.599H216.094H251.192V144.236ZM169.518 145.325C175.968 145.325 181.686 143.969 186.621 141.205C191.541 138.449 195.385 134.592 198.131 129.658C200.886 124.709 202.237 118.976 202.237 112.507V87.1702C202.237 80.7015 200.886 74.9684 198.131 70.019C195.385 65.0846 191.541 61.2281 186.621 58.4724C181.686 55.7081 175.968 54.3516 169.518 54.3516C163.067 54.3516 157.35 55.7081 152.415 58.4724C147.495 61.2281 143.651 65.0846 140.905 70.019C138.15 74.9684 136.798 80.7015 136.798 87.1702V112.507C136.798 118.976 138.15 124.709 140.905 129.658C143.651 134.592 147.495 138.449 152.415 141.205C157.35 143.969 163.067 145.325 169.518 145.325ZM169.518 127.194C166.96 127.194 164.692 126.591 162.678 125.407C160.639 124.208 159.03 122.594 157.834 120.547C156.653 118.526 156.051 116.249 156.051 113.68V85.88C156.051 83.311 156.653 81.034 157.834 79.0124C159.03 76.9658 160.639 75.3519 162.678 74.1528C164.692 72.9685 166.96 72.3658 169.518 72.3658C172.076 72.3658 174.344 72.9685 176.358 74.1528C178.397 75.3519 180.006 76.9658 181.202 79.0124C182.383 81.034 182.985 83.311 182.985 85.88V113.68C182.985 116.249 182.383 118.526 181.202 120.547C180.006 122.594 178.397 124.208 176.358 125.407C174.344 126.591 172.076 127.194 169.518 127.194Z" stroke="#1D1D1F" stroke-width="3"/>
<ellipse cx="321.937" cy="47.1716" rx="6.3" ry="6.32" stroke="#1A1A1A" stroke-width="4" stroke-linecap="round" stroke-linejoin="round"/>
<path d="M229.895 162.871L229.291 164.778" stroke="#1A1A1A" stroke-width="4" stroke-linecap="round" stroke-linejoin="round"/>
<path d="M236.711 174.484L234.805 173.878" stroke="#1A1A1A" stroke-width="4" stroke-linecap="round" stroke-linejoin="round"/>
<path d="M220.512 169.328L218.606 168.722" stroke="#1A1A1A" stroke-width="4" stroke-linecap="round" stroke-linejoin="round"/>
<path d="M224.77 179.078L224.166 180.985" stroke="#1A1A1A" stroke-width="4" stroke-linecap="round" stroke-linejoin="round"/>
<path d="M74.1876 42.9311L61.399 50.52L75.3835 57.7884L74.1876 42.9311Z" stroke="#1A1A1A" stroke-width="4" stroke-linecap="round" stroke-linejoin="round"/>
</svg>
