<svg width="25" height="24" viewBox="0 0 25 24" fill="none" xmlns="http://www.w3.org/2000/svg">
<path d="M1.98438 5C1.98438 4.44772 2.43209 4 2.98438 4H22.9844C23.5367 4 23.9844 4.44772 23.9844 5C23.9844 5.55228 23.5367 6 22.9844 6H2.98438C2.43209 6 1.98438 5.55228 1.98438 5Z" fill="#686870"/>
<path d="M5.48438 12C5.48438 11.4477 5.93209 11 6.48438 11H19.4844C20.0367 11 20.4844 11.4477 20.4844 12C20.4844 12.5523 20.0367 13 19.4844 13H6.48437C5.93209 13 5.48438 12.5523 5.48438 12Z" fill="#686870"/>
<path d="M9.48438 19C9.48438 18.4477 9.93209 18 10.4844 18H15.4844C16.0367 18 16.4844 18.4477 16.4844 19C16.4844 19.5523 16.0367 20 15.4844 20H10.4844C9.93209 20 9.48438 19.5523 9.48438 19Z" fill="#686870"/>
</svg>
