<svg width="323" height="176" viewBox="0 0 323 176" fill="none" xmlns="http://www.w3.org/2000/svg">
<path d="M233.404 31.0825C258.081 47.8219 282.407 67.328 287.133 90.5694C291.858 113.811 276.807 140.787 252.305 155.452C227.804 170.116 193.676 172.606 160.074 172.191C126.471 171.776 93.2189 168.594 68.8921 153.93C44.5654 139.266 28.9893 112.981 37.2149 93.3362C45.4404 73.6917 77.4677 60.5493 101.794 43.8099C126.296 27.0706 142.922 6.87277 163.574 3.69092C184.225 0.509064 208.902 14.3432 233.404 31.0825Z" fill="#EDEDED"/>
<path d="M186.676 36.4414H199.509C202.913 36.4414 206.177 37.7935 208.584 40.2002C210.99 42.6069 212.342 45.8711 212.342 49.2747V139.108C212.342 142.512 210.99 145.776 208.584 148.183C206.177 150.589 202.913 151.941 199.509 151.941H122.509C119.106 151.941 115.841 150.589 113.435 148.183C111.028 145.776 109.676 142.512 109.676 139.108V49.2747C109.676 45.8711 111.028 42.6069 113.435 40.2002C115.841 37.7935 119.106 36.4414 122.509 36.4414H135.342" stroke="#1D1D1F" stroke-width="5" stroke-linecap="round" stroke-linejoin="round"/>
<path d="M184.251 29.0625H145.751C142.207 29.0625 139.334 31.9353 139.334 35.4792V48.3125C139.334 51.8563 142.207 54.7292 145.751 54.7292H184.251C187.794 54.7292 190.667 51.8563 190.667 48.3125V35.4792C190.667 31.9353 187.794 29.0625 184.251 29.0625Z" fill="#FF6633"/>
<path d="M180.251 24.0645H141.751C138.207 24.0645 135.334 26.9373 135.334 30.4811V43.3145C135.334 46.8583 138.207 49.7311 141.751 49.7311H180.251C183.794 49.7311 186.667 46.8583 186.667 43.3145V30.4811C186.667 26.9373 183.794 24.0645 180.251 24.0645Z" stroke="#1D1D1F" stroke-width="5" stroke-linecap="round" stroke-linejoin="round"/>
<path d="M190.026 100.906H128.158" stroke="#1D1D1F" stroke-width="5" stroke-linecap="round" stroke-linejoin="round"/>
<path d="M190.026 131.891H128.158" stroke="#1D1D1F" stroke-width="5" stroke-linecap="round" stroke-linejoin="round"/>
<path d="M190.426 70.2344H159.09H127.754" stroke="#1D1D1F" stroke-width="5" stroke-linecap="round" stroke-linejoin="round"/>
<circle cx="278.002" cy="29.2344" r="10" stroke="#1D1D1F" stroke-width="3" stroke-linecap="round" stroke-linejoin="round"/>
<path d="M76.0703 19.2344L75.4654 21.1407" stroke="#1D1D1F" stroke-width="3" stroke-linecap="round" stroke-linejoin="round"/>
<path d="M83.8848 34.3008L81.9784 33.6959" stroke="#1D1D1F" stroke-width="3" stroke-linecap="round" stroke-linejoin="round"/>
<path d="M62.9062 27.6484L60.9999 27.0436" stroke="#1D1D1F" stroke-width="3" stroke-linecap="round" stroke-linejoin="round"/>
<path d="M69.4141 40.2031L68.8092 42.1095" stroke="#1D1D1F" stroke-width="3" stroke-linecap="round" stroke-linejoin="round"/>
</svg>
